<svg xmlns="http://www.w3.org/2000/svg" width="200" height="215.2" viewBox="0 0 200 215.2">
  <g id="no_student_search" transform="translate(-0.004 0)">
    <path id="Path_2274" data-name="Path 2274" d="M437.869,261.135,351.415,283.4a11.432,11.432,0,0,1-13.906-8.21L311.364,173.655a11.432,11.432,0,0,1,8.21-13.906l80.431-20.712,20.586,9.216,25.487,98.976a11.432,11.432,0,0,1-8.211,13.906Z" transform="translate(-310.999 -139.037)" fill="#f2f2f2"/>
    <path id="Path_2275" data-name="Path 2275" d="M326.607,169.491a8.141,8.141,0,0,0-5.847,9.9l26.146,101.532a8.141,8.141,0,0,0,9.9,5.847l86.453-22.263a8.141,8.141,0,0,0,5.847-9.9l-25.092-97.442-18.092-8.1Z" transform="translate(-317.212 -145.596)" fill="#fff"/>
    <path id="Path_2276" data-name="Path 2276" d="M588.213,149.29l-13.38,3.445A3.8,3.8,0,0,1,570.2,150l-2.545-9.882a.238.238,0,0,1,.327-.277l20.266,9a.238.238,0,0,1-.037.448Z" transform="translate(-478.84 -139.55)" fill="#f2f2f2"/>
    <path id="Path_2277" data-name="Path 2277" d="M527.852,410.69l-39.361,10.136a1.9,1.9,0,1,1-.948-3.683L526.9,407.008a1.9,1.9,0,0,1,.948,3.683Z" transform="translate(-425.518 -314.244)" fill="#ccc"/>
    <path id="Path_2278" data-name="Path 2278" d="M540.073,423,493.116,435.09a1.9,1.9,0,1,1-.948-3.683l46.957-12.092a1.9,1.9,0,0,1,.948,3.683Z" transform="translate(-428.543 -322.293)" fill="#ccc"/>
    <circle id="Ellipse_44" data-name="Ellipse 44" cx="6.721" cy="6.721" r="6.721" transform="translate(40.187 105.348)" fill="#e6e6e6"/>
    <path id="Path_2279" data-name="Path 2279" d="M461.246,264.616,408.97,278.072a5.889,5.889,0,0,1-7.163-4.23l-10.955-42.558a5.889,5.889,0,0,1,4.23-7.163l52.275-13.457a5.889,5.889,0,0,1,7.163,4.23l10.955,42.558A5.889,5.889,0,0,1,461.246,264.616Z" transform="translate(-363.097 -185.759)" fill="#fff"/>
    <path id="Path_2280" data-name="Path 2280" d="M461.246,264.616,408.97,278.072a5.889,5.889,0,0,1-7.163-4.23l-10.955-42.558a5.889,5.889,0,0,1,4.23-7.163l52.275-13.457a5.889,5.889,0,0,1,7.163,4.23l10.955,42.558A5.889,5.889,0,0,1,461.246,264.616Zm-65.991-39.824a5.2,5.2,0,0,0-3.733,6.32l10.955,42.558a5.2,5.2,0,0,0,6.32,3.733l52.275-13.456a5.2,5.2,0,0,0,3.733-6.32l-10.955-42.558a5.2,5.2,0,0,0-6.32-3.733Z" transform="translate(-363.097 -185.759)" fill="#e6e6e6"/>
    <path id="Path_411" data-name="Path 411" d="M494.733,248.833l-26.383,6.791a.945.945,0,0,1-1.145-.595.91.91,0,0,1,.641-1.155l26.856-6.913c1.085.55.8,1.674.03,1.872Z" transform="translate(-413.124 -209.617)" fill="#f2f2f2"/>
    <path id="Path_412" data-name="Path 412" d="M498.176,262.207,471.793,269a.945.945,0,0,1-1.145-.595.91.91,0,0,1,.641-1.155l26.856-6.913c1.085.55.8,1.674.03,1.872Z" transform="translate(-415.376 -218.363)" fill="#f2f2f2"/>
    <path id="Path_413" data-name="Path 413" d="M437.256,275.462l-8.052,2.073a1.025,1.025,0,0,1-1.247-.736l-2.446-9.5a1.025,1.025,0,0,1,.736-1.247l8.052-2.073a1.025,1.025,0,0,1,1.247.736l2.446,9.5A1.025,1.025,0,0,1,437.256,275.462Z" transform="translate(-385.864 -220.724)" fill="#e6e6e6"/>
    <path id="Path_414" data-name="Path 414" d="M478.766,289.647,438.5,300.012a.945.945,0,0,1-1.145-.595.91.91,0,0,1,.641-1.155l40.738-10.487c1.085.55.8,1.674.03,1.872Z" transform="translate(-393.603 -236.308)" fill="#f2f2f2"/>
    <path id="Path_415" data-name="Path 415" d="M482.209,303.025,441.945,313.39a.945.945,0,0,1-1.145-.595.91.91,0,0,1,.641-1.155l40.738-10.487c1.085.55.8,1.674.03,1.872Z" transform="translate(-395.856 -245.057)" fill="#f2f2f2"/>
    <path id="Path_416" data-name="Path 416" d="M485.651,316.394l-40.265,10.365a.945.945,0,0,1-1.145-.595.91.91,0,0,1,.641-1.155l40.738-10.487c1.085.55.8,1.674.03,1.872Z" transform="translate(-398.107 -253.8)" fill="#f2f2f2"/>
    <path id="Path_417" data-name="Path 417" d="M489.094,329.771,448.83,340.136a.945.945,0,0,1-1.145-.595.91.91,0,0,1,.641-1.155L489.064,327.9c1.085.55.8,1.674.03,1.872Z" transform="translate(-400.358 -262.549)" fill="#f2f2f2"/>
    <path id="Path_418" data-name="Path 418" d="M492.536,343.141l-40.265,10.365a.945.945,0,0,1-1.145-.595.91.91,0,0,1,.641-1.155l40.738-10.487c1.085.55.8,1.674.03,1.872Z" transform="translate(-402.609 -271.292)" fill="#f2f2f2"/>
    <path id="Path_395" data-name="Path 395" d="M442.869,458.984a.7.7,0,0,1-.441-.03l-.009,0-1.831-.776a.7.7,0,1,1,.549-1.292l1.186.5,1.555-3.657a.7.7,0,0,1,.92-.371h0l-.009.024.01-.024a.7.7,0,0,1,.371.92l-1.829,4.3a.7.7,0,0,1-.472.4Z" transform="translate(-395.466 -344.56)" fill="#fff"/>
    <path id="Path_2281" data-name="Path 2281" d="M583.167,362.4H493.894a11.432,11.432,0,0,1-11.419-11.419V246.134a11.432,11.432,0,0,1,11.419-11.419h83.054l17.638,14.059V350.979A11.432,11.432,0,0,1,583.167,362.4Z" transform="translate(-423.138 -201.608)" fill="#e6e6e6"/>
    <path id="Path_2282" data-name="Path 2282" d="M500.106,244.215a8.141,8.141,0,0,0-8.132,8.132V357.191a8.141,8.141,0,0,0,8.132,8.132h89.274a8.141,8.141,0,0,0,8.132-8.132V256.569l-15.5-12.355Z" transform="translate(-429.35 -207.821)" fill="#fff"/>
    <path id="Path_2283" data-name="Path 2283" d="M642.881,325.131H602.236a1.9,1.9,0,1,1,0-3.8h40.645a1.9,1.9,0,1,1,0,3.8Z" transform="translate(-500.215 -258.251)" fill="#737373"/>
    <path id="Path_2284" data-name="Path 2284" d="M650.725,343.678H602.236a1.9,1.9,0,1,1,0-3.8h48.489a1.9,1.9,0,1,1,0,3.8Z" transform="translate(-500.215 -270.381)" fill="#737373"/>
    <path id="Path_2285" data-name="Path 2285" d="M642.884,404.443H602.24a1.9,1.9,0,1,0,0,3.8h40.644a1.9,1.9,0,0,0,0-3.8Z" transform="translate(-500.218 -312.607)" fill="#ccc"/>
    <path id="Path_2286" data-name="Path 2286" d="M650.729,422.993H602.24a1.9,1.9,0,1,0,0,3.8h48.488a1.9,1.9,0,0,0,0-3.8Z" transform="translate(-500.218 -324.738)" fill="#ccc"/>
    <path id="Path_2287" data-name="Path 2287" d="M642.881,491.366H602.236a1.9,1.9,0,1,1,0-3.8h40.645a1.9,1.9,0,1,1,0,3.8Z" transform="translate(-500.215 -366.965)" fill="#ccc"/>
    <path id="Path_2288" data-name="Path 2288" d="M650.725,509.913H602.236a1.9,1.9,0,1,1,0-3.8h48.489a1.9,1.9,0,0,1,0,3.8Z" transform="translate(-500.215 -379.095)" fill="#ccc"/>
    <circle id="Ellipse_44-2" data-name="Ellipse 44" cx="6.721" cy="6.721" r="6.721" transform="translate(78.374 61.466)" fill="#737373"/>
    <path id="Path_395-2" data-name="Path 395" d="M550.678,333.845a.7.7,0,0,1-.419-.139l-.007-.006-1.58-1.208a.7.7,0,0,1,.854-1.114l1.023.785,2.418-3.154a.7.7,0,0,1,.984-.13h0l-.015.021.015-.021a.7.7,0,0,1,.13.984l-2.844,3.708a.7.7,0,0,1-.558.274Z" transform="translate(-466.25 -263.094)" fill="#fff"/>
    <path id="Path_2289" data-name="Path 2289" d="M552.931,406.508a6.721,6.721,0,0,1-6.72,6.723,1.443,1.443,0,0,1-.173-.007,6.72,6.72,0,1,1,6.893-6.716Z" transform="translate(-460.424 -309.561)" fill="#ccc"/>
    <circle id="Ellipse_44-3" data-name="Ellipse 44" cx="6.721" cy="6.721" r="6.721" transform="translate(78.374 118.987)" fill="#ccc"/>
    <path id="Path_2290" data-name="Path 2290" d="M772.182,249.728H758.365a3.8,3.8,0,0,1-3.8-3.8v-10.2a.238.238,0,0,1,.385-.186l17.382,13.77a.238.238,0,0,1-.148.424Z" transform="translate(-601.077 -202.11)" fill="#ccc"/>
    <path id="Path_2291" data-name="Path 2291" d="M563.332,406.689a6.721,6.721,0,0,1-6.72,6.723,1.442,1.442,0,0,1-.173-.007,14.551,14.551,0,0,1,1.3-13.343A6.724,6.724,0,0,1,563.332,406.689Z" transform="translate(-470.825 -309.742)" fill="#737373"/>
    <path id="Path_2292" data-name="Path 2292" d="M600.334,406.346a1.906,1.906,0,0,1,1.9-1.9h10.128a14.383,14.383,0,0,1,1.249,3.8H602.237a1.9,1.9,0,0,1-1.9-1.9Z" transform="translate(-500.215 -312.607)" fill="#737373"/>
    <path id="Path_2293" data-name="Path 2293" d="M613.853,422.993a14.5,14.5,0,0,1-.505,3.8H602.24a1.9,1.9,0,0,1,0-3.8Z" transform="translate(-500.218 -324.738)" fill="#737373"/>
    <path id="Path_2294" data-name="Path 2294" d="M658.76,456.877a2.076,2.076,0,0,1-2.854.691l-24.223-14.775a2.076,2.076,0,1,1,2.162-3.545l24.223,14.775a2.076,2.076,0,0,1,.691,2.854Z" transform="translate(-520.066 -335.17)" fill="#3f3d56"/>
    <path id="Path_2295" data-name="Path 2295" d="M583.617,400.328a16.609,16.609,0,1,1-5.531-22.828,16.609,16.609,0,0,1,5.531,22.828ZM558.8,385.193a12.457,12.457,0,1,0,17.121-4.148,12.457,12.457,0,0,0-17.121,4.148Z" transform="translate(-469.146 -293.396)" fill="#3f3d56"/>
    <circle id="Ellipse_46" data-name="Ellipse 46" cx="8.499" cy="8.499" r="8.499" transform="translate(159.188 83.949)" fill="#a0616a"/>
    <path id="Path_2296" data-name="Path 2296" d="M793.671,482.081a3.807,3.807,0,0,1,2.88-4.9,3.624,3.624,0,0,1,.5-.062l8.952-14.368-8.177-7.774a3.264,3.264,0,1,1,4.54-4.69l11.29,11.133.023.028a2.957,2.957,0,0,1-.206,3.524L800.935,479.81a3.589,3.589,0,0,1,.093.362,3.807,3.807,0,0,1-3.417,4.539q-.162.014-.323.014A3.819,3.819,0,0,1,793.671,482.081Z" transform="translate(-626.534 -341.989)" fill="#a0616a"/>
    <path id="Path_2297" data-name="Path 2297" d="M432.319,578.075h-4.242l-2.018-16.363h6.261Z" transform="translate(-278.63 -367.347)" fill="#a0616a"/>
    <path id="Path_2298" data-name="Path 2298" d="M732.425,749.532H718.746v-.173a5.324,5.324,0,0,1,5.324-5.324h8.355Z" transform="translate(-577.654 -534.692)" fill="#2f2e41"/>
    <path id="Path_2299" data-name="Path 2299" d="M540.019,565.478l-3.645,2.17-10.106-13.026,5.38-3.2Z" transform="translate(-344.165 -360.616)" fill="#a0616a"/>
    <path id="Path_2300" data-name="Path 2300" d="M861.974,730.772l-11.753,7-.089-.149a5.324,5.324,0,0,1,1.851-7.3h0l7.178-4.274Z" transform="translate(-663.087 -522.929)" fill="#2f2e41"/>
    <path id="Path_2301" data-name="Path 2301" d="M731.425,581.064c-2.842-33.463-4.532-64.549,5.856-77.23l.08-.1,17.483,6.993.029.063c.059.128,5.873,12.918,4.517,21.521l4.312,19.837,14.061,23.544a1.558,1.558,0,0,1-.71,2.224l-6.11,2.688a1.565,1.565,0,0,1-1.955-.611l-15.3-24.941-8.639-19.13a.519.519,0,0,0-.989.159L739.276,581.1a1.554,1.554,0,0,1-1.548,1.393h-4.75A1.568,1.568,0,0,1,731.425,581.064Z" transform="translate(-584.532 -377.542)" fill="#2f2e41"/>
    <path id="Path_2302" data-name="Path 2302" d="M752,461.815l-.083-.04-.013-.092c-.653-4.571.12-9.65,2.3-15.1a11.985,11.985,0,0,1,13.911-7.178h0a11.97,11.97,0,0,1,7.633,5.87,11.841,11.841,0,0,1,.821,9.49c-2.745,8.028-6.307,15.539-6.342,15.614l-.075.157Z" transform="translate(-599.191 -335.258)" fill="#ef7f19"/>
    <path id="Path_2303" data-name="Path 2303" d="M694.747,457.606a3.807,3.807,0,0,1,5.6.982,3.633,3.633,0,0,1,.235.451l16.593,3.354,4.418-10.382a3.264,3.264,0,1,1,5.983,2.61L721.1,469.1l-.018.031a2.957,2.957,0,0,1-3.373,1.041l-18.288-6.554a3.57,3.57,0,0,1-.306.214,3.807,3.807,0,0,1-5.448-1.611q-.07-.147-.126-.3A3.819,3.819,0,0,1,694.747,457.606Z" transform="translate(-561.013 -342.434)" fill="#a0616a"/>
    <path id="Path_2304" data-name="Path 2304" d="M806.829,392.695a6.929,6.929,0,0,0-3.588-3.315c-2.036-.692-4.241.045-6.335.537a11.737,11.737,0,0,1-4.924.291,5.53,5.53,0,0,1-3.934-2.749c-1.088-2.181-.171-4.782-.238-7.219A8.766,8.766,0,0,0,776.765,372c-2-.579-3.82-.632-5.06.909a5.883,5.883,0,0,0-5.882,5.882h5.625a5.588,5.588,0,0,0,.849,4.128c.993,1.459,2.72,2.514,3.052,4.247.322,1.679-.819,3.273-2.017,4.494s-2.587,2.43-2.96,4.1a5.083,5.083,0,0,0,.728,3.656,11.906,11.906,0,0,0,2.556,2.815,37.51,37.51,0,0,0,15.584,7.972c4.05.975,8.48,1.228,12.239-.566a12.154,12.154,0,0,0,5.351-16.944Z" transform="translate(-608.441 -291.146)" fill="#2f2e41"/>
    <path id="Path_2305" data-name="Path 2305" d="M763.091,759.655H697.347a.346.346,0,1,1,0-.692h65.744a.346.346,0,0,1,0,.692Z" transform="translate(-563.433 -544.455)" fill="#ccc"/>
  </g>
</svg>
